<?xml version="1.0" encoding="UTF-8"?>
<svg version="1.1" xmlns="http://www.w3.org/2000/svg" width="512" height="512">
<path d="M0 0 C5.09371873 3.02741617 9.0419381 7.28777885 13.18437862 11.47294235 C14.10099177 12.38699223 15.01760492 13.3010421 15.96199423 14.24279046 C18.49549735 16.76960841 21.01958916 19.30564597 23.54220068 21.8433311 C26.26808433 24.58219929 29.00266274 27.31236235 31.73618221 30.0436058 C36.46752424 34.77337663 41.19335295 39.50859859 45.91545582 44.24759293 C52.74278357 51.0993268 59.57840399 57.94273803 66.41606099 64.78416207 C77.51012275 75.88478577 88.5974718 86.99208905 99.6806097 98.10361862 C110.44531833 108.89587445 121.21318089 119.68496736 131.9852972 130.46982956 C132.64955815 131.13487868 133.3138191 131.7999278 133.99820917 132.48512992 C137.33071095 135.82154689 140.6632748 139.15790184 143.99586952 142.49422598 C171.63242733 170.1618717 199.25809619 197.8403694 226.87665462 225.5259819 C230.14518175 224.09366367 232.30705814 222.34224404 234.81914234 219.82120991 C235.59672016 219.04576409 236.37429798 218.27031827 237.17543876 217.47137409 C238.44750842 216.18749638 238.44750842 216.18749638 239.74527645 214.87768173 C240.65100938 213.97154096 241.55674231 213.06540018 242.48992169 212.13180059 C245.00495083 209.61542054 247.51370089 207.09286024 250.02150655 204.56928408 C252.72684327 201.84915366 255.43799206 199.1348276 258.14850521 196.41985703 C262.84530377 191.71386935 267.5385884 187.0044008 272.22967815 182.2927227 C279.01724969 175.4756356 285.81175344 168.665491 292.6082678 161.85732096 C303.6413037 150.80526589 314.67096515 139.74985059 325.69745541 128.69126511 C326.35753602 128.02926656 327.01761663 127.36726802 327.69769968 126.68520891 C335.06166157 119.29970149 342.42480918 111.91338307 349.78705502 104.52616501 C352.45639786 101.8477906 355.12574824 99.1694237 357.79511166 96.49106979 C358.45378136 95.83017843 359.11245107 95.16928707 359.79108046 94.4883687 C370.77181213 83.47092253 381.75835976 72.45929615 392.74948895 61.45222276 C399.5297833 54.66159073 406.30499184 47.86596031 413.07375766 41.06383645 C417.71197865 36.40348858 422.35555484 31.74852262 427.0033928 27.09776599 C429.68543825 24.41367066 432.36493899 21.72715483 435.03791332 19.03402328 C437.93522488 16.11496608 440.84401693 13.20762526 443.75406551 10.30126572 C444.59765051 9.44757796 445.4412355 8.5938902 446.31038368 7.71433312 C452.1334007 1.92657397 456.72073332 -1.89139416 465.25165462 -1.9740181 C471.36635038 -1.81365549 475.43264608 -0.7433236 479.87665462 3.5259819 C484.28485831 8.81582632 484.34222455 13.47968454 484.40790462 20.2447319 C483.07576426 28.47265768 477.11399199 33.71493319 471.4366827 39.34017563 C470.57713014 40.2037026 469.71757757 41.06722957 468.83197796 41.95692402 C466.45590774 44.3409314 464.07332369 46.71806254 461.68768239 49.0924691 C459.11240635 51.65888009 456.54581137 54.23394804 453.97809505 56.80791855 C448.95230202 61.84318637 443.91852049 66.87039384 438.88191091 71.89483976 C433.01911301 77.7440058 427.16396486 83.60080455 421.30903722 89.45784677 C410.86664903 99.9034226 400.41685659 110.34156004 389.96308041 120.77573776 C379.81244925 130.90734373 369.66782249 141.04491413 359.52948666 151.1888237 C348.48995147 162.23441011 337.44732109 173.27688376 326.39907086 184.31375366 C325.22233872 185.48927848 324.04560725 186.66480397 322.86887646 187.84033012 C322.28987468 188.41872837 321.71087289 188.99712661 321.11432561 189.59305207 C317.02687005 193.67662219 312.94156159 197.76233289 308.85699749 201.84879494 C303.8853011 206.82260839 298.90997244 211.79275451 293.92994843 216.75823044 C291.3874738 219.29343878 288.84664009 221.83023682 286.31006908 224.37135315 C283.56632857 227.11989079 280.81494028 229.86068666 278.06265926 232.60067368 C277.25411428 233.41299798 276.4455693 234.22532228 275.61252296 235.06226248 C274.5129804 236.15305674 274.5129804 236.15305674 273.39122486 237.26588726 C272.75622244 237.90002291 272.12122001 238.53415855 271.46697509 239.18751043 C269.87665462 240.5259819 269.87665462 240.5259819 267.87665462 240.5259819 C267.64977962 241.1034819 267.42290462 241.6809819 267.18915462 242.2759819 C265.5326495 245.11570498 263.45097474 246.47822726 260.87665462 248.5259819 C259.31538715 250.24337613 257.83377819 252.0147805 256.34540462 253.79551315 C252.59679881 258.21208862 248.3135387 261.82857851 243.87665462 265.5259819 C242.57727962 266.8562944 242.57727962 266.8562944 241.25165462 268.2134819 C237.07730245 272.27798271 233.93531244 272.8556793 228.12665462 272.9634819 C219.88704821 272.84369531 216.09698273 270.44674461 210.18915462 265.0884819 C208.57531629 263.30017455 207.01614663 261.46166938 205.50165462 259.5884819 C203.1316529 256.68187602 200.45128079 254.3586152 197.57587337 251.9634819 C194.38770051 249.26636095 191.54694368 246.39735768 189.00165462 243.0884819 C186.6678132 240.27414372 184.1186219 238.12830458 181.26727962 235.85801315 C180.80837337 235.41844284 180.34946712 234.97887253 179.87665462 234.5259819 C179.87665462 233.8659819 179.87665462 233.2059819 179.87665462 232.5259819 C179.291377 232.26545572 178.70609937 232.00492953 178.10308605 231.73650861 C175.72906667 230.44573728 174.16270181 229.06378076 172.25375175 227.15755463 C171.54747515 226.45711021 170.84119854 225.7566658 170.11351961 225.03499579 C169.34513673 224.26283359 168.57675384 223.49067138 167.78508663 222.69511032 C166.96299161 221.87684084 166.14089658 221.05857136 165.29388958 220.21550584 C163.01335217 217.94350888 160.73735986 215.66706965 158.46322834 213.38866401 C156.00938947 210.9323612 153.54982478 208.48180328 151.09101009 206.03048325 C146.27484543 201.2270772 141.46418373 196.4181961 136.6555646 191.60723749 C132.74709591 187.69698666 128.83686719 183.78850433 124.92537785 179.88127518 C124.36893836 179.32543089 123.81249888 178.76958659 123.2391976 178.19689853 C122.10882512 177.0677378 120.97845145 175.93857826 119.84807659 174.8094199 C109.24401428 164.21623775 98.64648464 153.61653883 88.05090982 143.01486829 C78.35692523 133.31571499 68.65475494 123.62479763 58.94868397 113.93774065 C48.98403509 103.99246288 39.02495139 94.0416437 29.07186276 84.08479619 C23.48329723 78.49431741 17.89254602 72.90606706 12.29596424 67.32361221 C7.53120631 62.57075984 2.77172447 57.81270044 -1.98102207 53.04783574 C-4.40595748 50.61700565 -6.83323846 48.1886475 -9.26710415 45.76675606 C-11.90464125 43.1396336 -14.53279714 40.50347126 -17.15876102 37.86478806 C-17.92937463 37.10154874 -18.69998823 36.33830942 -19.49395376 35.55194163 C-25.05580506 29.93312928 -28.54399703 25.34369824 -28.62334538 17.1509819 C-28.46298277 11.03628615 -27.39265088 6.96999045 -23.12334538 2.5259819 C-16.69837864 -2.82815705 -7.58038331 -3.57745329 0 0 Z " fill="#000000" transform="translate(28.123345375061035,120.47401809692383)"/>
</svg>
